<svg width="151" height="48" viewBox="0 0 151 48" fill="none" xmlns="http://www.w3.org/2000/svg">
<path d="M7.032 42V28.248H0.84V25.2H16.128V28.248H10.08V42H7.032ZM18.6488 42V28.272L21.7208 25.2H32.3768V28.272H21.7208V38.928H33.1448L30.0968 42H18.6488ZM21.7208 35.112L24.7448 32.04H30.8648V35.112H21.7208ZM36.0159 42V28.272L39.0639 25.2H49.7439V28.272H39.0639V38.928H50.4879L47.4399 42H36.0159ZM53.3597 42V25.2H56.4077V42H53.3597ZM56.4077 35.112L59.4557 32.064H65.5517V25.2H68.5997V42H65.5517V35.112H56.4077ZM81.1131 42L75.0171 25.2H78.0651L84.1611 42H81.1131ZM71.9691 42V25.2H75.0171V42H71.9691ZM84.1611 42V25.2H87.2091V42H84.1611ZM90.5784 42V28.248L93.6264 25.2H105.866V38.952L102.818 42H90.5784ZM93.6264 38.952H102.818V28.248H93.6264V38.952ZM122.875 42L115.355 14H120.635L128.075 42H122.875ZM110.355 42V14H115.355V42H110.355ZM128.075 42L135.555 14H140.835L133.315 42H128.075ZM140.835 42V14H145.835V42H140.835Z" fill="white"/>
</svg>
